<?xml version="1.0" standalone="no"?>
<!DOCTYPE svg PUBLIC "-//W3C//DTD SVG 20010904//EN"
 "http://www.w3.org/TR/2001/REC-SVG-20010904/DTD/svg10.dtd">
<svg version="1.0" xmlns="http://www.w3.org/2000/svg"
 width="32.000000pt" height="32.000000pt" viewBox="0 0 32.000000 32.000000"
 preserveAspectRatio="xMidYMid meet">

<g transform="translate(0.000000,32.000000) scale(0.100000,-0.100000)"
fill="#000000" stroke="none">
<path d="M90 298 c-48 -25 -90 -89 -90 -138 0 -49 42 -113 90 -138 139 -72
280 69 208 208 -25 48 -89 90 -138 90 -14 0 -46 -10 -70 -22z m77 -100 l32
-53 1 53 c0 45 3 52 20 52 19 0 20 -7 20 -91 0 -88 -1 -90 -22 -87 -16 2 -34
22 -58 63 l-35 59 -3 -62 c-3 -54 -6 -62 -22 -62 -18 0 -20 7 -20 90 l0 90 28
0 c22 0 33 -10 59 -52z"/>
</g>
</svg>
