<?xml version="1.0" standalone="no"?>
<!DOCTYPE svg PUBLIC "-//W3C//DTD SVG 20010904//EN"
 "http://www.w3.org/TR/2001/REC-SVG-20010904/DTD/svg10.dtd">
<svg version="1.0" xmlns="http://www.w3.org/2000/svg"
 width="512.000000pt" height="512.000000pt" viewBox="0 0 512.000000 512.000000"
 preserveAspectRatio="xMidYMid meet">

<g transform="translate(0.000000,512.000000) scale(0.100000,-0.100000)"
fill="#000000" stroke="none">
<path d="M3078 5105 c-91 -25 -264 -45 -483 -55 -745 -34 -850 -46 -976 -111
-79 -40 -143 -147 -158 -265 -6 -50 -20 -90 -49 -144 -53 -99 -80 -189 -91
-313 -16 -163 12 -382 67 -522 10 -28 27 -84 37 -125 10 -41 19 -77 21 -79 6
-7 93 69 131 116 l38 46 0 216 c1 235 12 309 60 383 42 63 67 65 262 19 344
-81 450 -81 785 0 147 35 174 39 204 29 94 -31 130 -200 115 -541 -4 -96 -4
-97 27 -135 43 -52 154 -146 162 -136 4 4 12 43 19 87 7 44 24 108 36 142 65
172 91 433 61 597 -20 102 -54 194 -99 263 l-31 48 -2 155 c-2 155 -21 298
-45 326 -13 16 -27 16 -91 -1z"/>
<path d="M1920 3875 c-30 -9 -65 -25 -77 -37 -29 -27 -30 -71 -2 -99 23 -23
44 -23 149 0 30 7 67 6 113 -1 79 -13 113 -3 123 37 10 39 -11 74 -54 92 -53
22 -185 26 -252 8z"/>
<path d="M2537 3876 c-61 -17 -87 -41 -87 -81 0 -52 28 -69 97 -60 82 12 121
11 185 -4 71 -17 102 -10 118 29 24 59 -13 97 -118 119 -68 14 -134 13 -195
-3z"/>
<path d="M1906 3579 c-23 -18 -26 -28 -26 -80 0 -69 21 -99 70 -99 48 0 70 30
70 95 0 46 -4 60 -25 80 -30 30 -54 31 -89 4z"/>
<path d="M2687 3580 c-24 -19 -27 -28 -27 -81 0 -69 21 -99 70 -99 45 0 70 33
70 96 0 85 -57 128 -113 84z"/>
<path d="M4322 334 c34 -18 41 -45 36 -133 -3 -54 -9 -77 -31 -107 -29 -43
-73 -73 -121 -85 -18 -4 41 -7 134 -8 146 0 170 2 210 20 89 40 122 96 124
207 1 69 -1 75 -27 98 -27 23 -33 24 -190 24 -149 -1 -160 -2 -135 -16z"/>
</g>
</svg>
